# xmcd CD database file
#
# Track frame offsets:
#	150
#	35560
#	68788
#	95700
#	111695
#	145158
#
# Disc length: 2494 seconds
#
# Revision: 0
# Processed by: cddbd v1.5.1PL0 Copyright (c) Steve Scherf et al.
# Submitted via: CDex 1.51
#
DISCID=5a09bc06
DTITLE=Various Artist - Go South
DYEAR=1989
DGENRE=Africa
TTITLE0=Mr. Simon - Souzy Kasseya
TTITLE1=Juanita - Thomas Mapfumo and the Blacks Unlimited
TTITLE2=Vukani - Sankomota
TTITLE3=Bushwoman - Onike
TTITLE4=Ololomoko - Dele Abiodun
TTITLE5=Achmed Sabit - Samba Mapangala and Orchestre Virunga
EXTD=YEAR: 1989
EXTT0=
EXTT1=
EXTT2=
EXTT3=
EXTT4=
EXTT5=
PLAYORDER=
